<svg id="Camada_2" xmlns="http://www.w3.org/2000/svg" viewBox="0 0 52.93 60.76">
  <defs>
    <style>
      .cls-1 {
        fill: #ec268f;
      }
    </style>
  </defs>
  <g id="Camada_3">
    <g>
      <path class="cls-1" d="M51.15,33.86V7.54c0-4.16-3.38-7.54-7.54-7.54s-7.54,3.38-7.54,7.54v2c-1.55.26-2.73,1.6-2.73,3.22v.59c0,.82.67,1.48,1.48,1.48h7.71c.82,0,1.48-.67,1.48-1.48v-.59c0-1.58-1.12-2.89-2.61-3.2v-2.02c0-1.21.98-2.2,2.2-2.2s2.2.98,2.2,2.2v18.69c0,.49.4.89.89.89s.89-.4.89-.89V7.54c0-2.19-1.78-3.98-3.98-3.98s-3.98,1.78-3.98,3.98v1.96h-1.78v-1.96c0-3.17,2.58-5.76,5.76-5.76s5.76,2.58,5.76,5.76v26.17h-1.78v-3.32c0-.49-.4-.89-.89-.89s-.89.4-.89.89v3.32h-1.78c-.04-2.29-1.88-4.14-4.13-4.15-.43,0-.85.06-1.26.19-.93-1.71-2.74-2.8-4.7-2.8-.82,0-1.63.19-2.36.55-1-1.46-2.63-2.33-4.41-2.33-1.12,0-2.18.34-3.09.98-.91-.64-1.97-.98-3.09-.98-1.78,0-3.41.86-4.41,2.33-.73-.36-1.54-.55-2.36-.55-1.95,0-3.77,1.09-4.7,2.8-.41-.13-.83-.19-1.26-.19-2.26,0-4.09,1.87-4.13,4.15h-1.49c-1.47,0-2.67,1.2-2.67,2.67v.59c0,1.16.74,2.15,1.78,2.52v3.77c0,5.73,4.66,10.38,10.38,10.38h.3v.89c0,.49-.4.89-.89.89h-.83c-1.47,0-2.67,1.2-2.67,2.67s1.2,2.67,2.67,2.67h1.42c3.11,0,5.64-2.53,5.64-5.64v-1.48h2.61c.49,0,.89-.4.89-.89s-.4-.89-.89-.89h-8.25c-4.74,0-8.6-3.86-8.6-8.6v-3.62h5.93v5.64c0,1.15.93,2.08,2.08,2.08h5.34c1.15,0,2.08-.93,2.08-2.08v-5.64h30.38v3.62c0,4.74-3.86,8.6-8.6,8.6h-16.2c-.49,0-.89.4-.89.89s.4.89.89.89h10.56v1.48c0,3.11,2.53,5.64,5.64,5.64h1.42c1.47,0,2.67-1.2,2.67-2.67s-1.2-2.67-2.67-2.67h-.83c-.49,0-.89-.4-.89-.89v-.89h.3c5.73,0,10.38-4.66,10.38-10.38v-3.77c1.04-.37,1.78-1.36,1.78-2.52v-.59c0-1.16-.74-2.15-1.78-2.52ZM40.77,11.27c.82,0,1.48.67,1.48,1.48v.3h-7.12v-.3c0-.82.67-1.48,1.48-1.48h4.15ZM14.24,54.53v-.89h1.78v1.48c0,2.13-1.73,3.86-3.86,3.86h-1.42c-.49,0-.89-.4-.89-.89s.4-.89.89-.89h.83c1.47,0,2.67-1.2,2.67-2.67ZM41.36,57.2h.83c.49,0,.89.4.89.89s-.4.89-.89.89h-1.42c-2.13,0-3.86-1.73-3.86-3.86v-1.48h1.78v.89c0,1.47,1.2,2.67,2.67,2.67ZM9.49,37.86H2.67c-.49,0-.89-.4-.89-.89v-.59c0-.49.4-.89.89-.89h6.82v2.37ZM17.21,45.28c0,.16-.13.3-.3.3h-5.34c-.16,0-.3-.13-.3-.3v-9.79h5.93v9.79ZM5.94,33.7c.04-1.31,1.08-2.37,2.36-2.37h.01c.29,0,.58.05.85.16.71.27,1.54-.06,1.87-.75.59-1.23,1.85-2.02,3.21-2.02.61,0,1.21.16,1.73.45.7.39,1.57.16,1.99-.52.65-1.07,1.79-1.71,3.04-1.71.8,0,1.55.26,2.18.74.54.42,1.28.42,1.82,0,.63-.49,1.38-.74,2.18-.74,1.25,0,2.39.64,3.04,1.71.42.68,1.29.91,1.99.52.53-.29,1.13-.45,1.73-.45,1.36,0,2.62.79,3.21,2.02.34.7,1.16,1.03,1.87.75.27-.1.56-.16.85-.16h.01c1.28,0,2.32,1.06,2.36,2.37H5.94ZM51.15,36.97c0,.49-.4.89-.89.89h-31.27v-2.37h31.27c.49,0,.89.4.89.89v.59Z"/>
      <path class="cls-1" d="M24.09,22.9c1.47,0,2.67-1.2,2.67-2.67s-1.2-2.67-2.67-2.67-2.67,1.2-2.67,2.67,1.2,2.67,2.67,2.67ZM24.09,19.34c.49,0,.89.4.89.89s-.4.89-.89.89-.89-.4-.89-.89.4-.89.89-.89Z"/>
      <path class="cls-1" d="M13.41,25.63c1.47,0,2.67-1.2,2.67-2.67s-1.2-2.67-2.67-2.67-2.67,1.2-2.67,2.67,1.2,2.67,2.67,2.67ZM13.41,22.07c.49,0,.89.4.89.89s-.4.89-.89.89-.89-.4-.89-.89.4-.89.89-.89Z"/>
      <path class="cls-1" d="M34.77,25.63c1.47,0,2.67-1.2,2.67-2.67s-1.2-2.67-2.67-2.67-2.67,1.2-2.67,2.67,1.2,2.67,2.67,2.67ZM34.77,22.07c.49,0,.89.4.89.89s-.4.89-.89.89-.89-.4-.89-.89.4-.89.89-.89Z"/>
    </g>
  </g>
</svg>