<?xml version="1.0" encoding="UTF-8"?>
<svg id="Camada_2" xmlns="http://www.w3.org/2000/svg" viewBox="0 0 56.5 54.68">
  <defs>
    <style>
      .cls-1 {
        fill: #ec268f;
      }
    </style>
  </defs>
  <g id="Camada_3">
    <g>
      <path class="cls-1" d="M19.13,25.52c4.02,0,7.29-2.66,7.29-5.92,0-.5-.41-.91-.91-.91s-.91.41-.91.91c0,2.03-1.97,3.72-4.56,4.04v-2.89c.1-.05.19-.1.28-.17l1.55-1.1h0c.58-.42.91-1.09.91-1.8,0-1.2-.94-2.18-2.1-2.18h-3.09c-1.16,0-2.1.98-2.1,2.18,0,.71.33,1.38.91,1.8l1.55,1.1c.09.06.18.12.28.17v2.89c-2.58-.33-4.56-2.01-4.56-4.04,0-.5-.41-.91-.91-.91s-.91.41-.91.91c0,3.27,3.27,5.92,7.29,5.92ZM17.45,17.99c-.1-.08-.15-.19-.15-.32,0-.19.13-.36.28-.36h3.09c.15,0,.28.16.28.36,0,.12-.05.24-.15.32l-1.55,1.1c-.08.06-.18.06-.26,0l-1.55-1.1Z"/>
      <circle class="cls-1" cx="24.6" cy="14.58" r=".91"/>
      <circle class="cls-1" cx="13.66" cy="14.58" r=".91"/>
      <path class="cls-1" d="M42.83,33.72c2.01,0,3.65-1.63,3.65-3.65s-1.63-3.65-3.65-3.65-3.65,1.63-3.65,3.65c0,2.01,1.63,3.64,3.65,3.65ZM42.83,28.25c1.01,0,1.82.82,1.82,1.82s-.82,1.82-1.82,1.82-1.82-.82-1.82-1.82c0-1.01.82-1.82,1.82-1.82Z"/>
      <path class="cls-1" d="M55.59,35.54h-5.47v-11.85c0-.19-.06-.37-.17-.52h0l-6.38-9.11c-.29-.41-.86-.51-1.27-.22-.09.06-.16.14-.22.22l-6.38,9.11h0c-.11.15-.16.34-.16.52v5.7c-1.25-1.68-2.91-3.07-4.97-4.14,2.03-2.39,3.14-5.49,3.14-8.85,0-1.49-.22-2.96-.67-4.38,3.12-1.64,4.31-5.5,2.66-8.62-1.64-3.12-5.5-4.31-8.62-2.66-1.17.62-2.12,1.58-2.72,2.76-1.7-.52-3.47-.78-5.24-.77-1.78-.01-3.54.25-5.24.77C12.3.36,8.46-.9,5.32.69,2.17,2.28.91,6.11,2.5,9.26c.6,1.18,1.55,2.15,2.72,2.76-.45,1.42-.67,2.9-.67,4.38,0,3.36,1.11,6.46,3.14,8.85C3.25,27.57.63,31.37.09,36.32c0,.01,0,.02,0,.03l-.09,1.25s0,.08,0,.12c.15,2.18,1.58,4.06,3.64,4.79-.6,1.23-.91,2.59-.91,3.96,0,4.52,3.27,8.2,7.29,8.2,2.16,0,4.11-1.07,5.45-2.76,2.29,1.25,5.05,1.25,7.33,0,1.34,1.69,3.28,2.76,5.45,2.76,2.86,0,5.33-1.86,6.53-4.56h20.81c.5,0,.91-.41.91-.91v-12.76c0-.5-.41-.91-.91-.91ZM42.83,16.17l4.63,6.61h-9.26l4.63-6.61ZM37.36,24.61h10.94v10.94h-10.24c-.14-.93-.38-1.85-.69-2.73v-8.2ZM34.63,42.51c.86-.31,1.63-.83,2.24-1.5h1.41v3.65h-2.92c-.15-.74-.39-1.46-.73-2.14ZM36.35,36.5l.08,1.17c-.13,1.58-1.28,2.9-2.83,3.25-1.14-1.39-2.71-2.34-4.46-2.58-.17-3.71-1.42-7.13-3.46-9.52,1.29-.54,2.48-1.29,3.54-2.2,4.17,2,6.63,5.4,7.12,9.88h0ZM30.06,1.82c2.52,0,4.56,2.04,4.56,4.56,0,1.62-.86,3.12-2.26,3.94-.64-1.33-1.5-2.55-2.55-3.58-1.09-1.06-2.35-1.93-3.73-2.57.81-1.44,2.33-2.34,3.98-2.34ZM3.63,6.38c0-2.52,2.04-4.56,4.56-4.56,1.65,0,3.18.9,3.98,2.34-1.38.63-2.64,1.5-3.73,2.57-1.05,1.04-1.92,2.25-2.55,3.58-1.4-.82-2.26-2.32-2.26-3.93ZM9.72,8.03c2.31-2.27,5.56-3.48,9.4-3.48s7.09,1.2,9.4,3.48c2.16,2.13,3.35,5.1,3.35,8.37s-1.19,6.24-3.35,8.37c-2.31,2.27-5.56,3.48-9.4,3.48s-7.09-1.2-9.4-3.48c-2.16-2.13-3.35-5.1-3.35-8.37s1.19-6.24,3.35-8.37ZM1.82,37.67l.08-1.17c.49-4.48,2.95-7.88,7.12-9.88,1.06.92,2.26,1.66,3.55,2.21-2.04,2.4-3.29,5.83-3.45,9.51-1.76.24-3.32,1.19-4.47,2.58-1.56-.35-2.71-1.67-2.84-3.25ZM10.02,52.86c-3.02,0-5.47-2.86-5.47-6.38s2.45-6.38,5.47-6.38,5.47,2.86,5.47,6.38-2.45,6.38-5.47,6.38ZM19.14,51.03c-.94,0-1.86-.23-2.7-.66.58-1.22.88-2.55.87-3.89,0-4.17-2.78-7.62-6.36-8.13.18-3.55,1.45-6.8,3.5-8.87,1.52.41,3.09.61,4.67.6,1.58,0,3.16-.19,4.68-.6,2.06,2.07,3.33,5.3,3.51,8.88-3.58.52-6.36,3.97-6.36,8.13,0,1.35.29,2.68.87,3.89-.83.43-1.76.66-2.7.66ZM28.25,52.86c-3.02,0-5.47-2.86-5.47-6.38s2.45-6.38,5.47-6.38,5.47,2.86,5.47,6.38-2.45,6.38-5.47,6.38ZM35.54,46.48h3.65c.5,0,.91-.41.91-.91v-5.47c0-.5-.41-.91-.91-.91h-1.24c.17-.47.27-.96.3-1.46,0-.04,0-.08,0-.12l-.02-.24h3.68v10.94h-6.56c.12-.6.18-1.21.18-1.82ZM54.68,48.3h-10.94v-10.94h10.94v10.94Z"/>
      <path class="cls-1" d="M46.48,46.48h5.47c.5,0,.91-.41.91-.91,0-.14-.03-.28-.1-.41l-2.73-5.47c-.23-.45-.77-.63-1.22-.41-.18.09-.32.23-.41.41l-2.73,5.47c-.23.45-.04,1,.41,1.22.13.06.27.1.41.1ZM49.21,42.14l1.26,2.52h-2.52l1.26-2.52Z"/>
    </g>
  </g>
</svg>