<?xml version="1.0" encoding="UTF-8"?>
<svg id="Camada_2" xmlns="http://www.w3.org/2000/svg" viewBox="0 0 51.84 64.83">
  <defs>
    <style>
      .cls-1 {
        fill: #ec268f;
        fill-rule: evenodd;
      }
    </style>
  </defs>
  <g id="Camada_3">
    <g>
      <path class="cls-1" d="M50.89,43.86c-1.63-1.94-4.71-2.35-7.22-.99l-15.53,8.85c-.15.11-.3.23-.42.27q-.53.34-1.48.34h-1.97c-.23,0-.49-.11-.61-.23-.04-.11-.04-.15-.04-.15.04-.42.8-.49.84-.49h.42c.53,0,.68,0,1.48-.27,3.8-1.03,6-2.32,6.76-3.8.95-1.97.04-3.19-.38-3.61-1.06-.95-2.43-.65-3.72-.34-1.63.42-3.53.91-5.7-.57-2.01-1.37-6.04-3.68-10.14-3.42h-5.54v-1.03c0-1.14-.95-2.16-2.16-2.16h-3.3c-1.18,0-2.16.95-2.16,2.16v21.3c0,1.22.95,2.16,2.16,2.16h3.3c1.18,0,2.16-.99,2.16-2.16v-.47l9.3,4.54c.15.08,2.2,1.03,5.05,1.03,1.48,0,3.11-.27,4.9-1.03h.04c5.13-2.62,21.8-11.17,23.47-13.63,2.09-2.58,1.59-4.94.49-6.3ZM5.73,59.74c0,.23-.15.34-.3.34h-3.34c-.15,0-.3-.15-.3-.34v-21.3c0-.15.15-.3.3-.3h3.34c.15,0,.3.15.3.3v21.3ZM48.88,49.1s-.04.11-.11.15c-.84,1.33-12.23,7.6-22.71,12.91-4.29,1.86-8.35,0-8.35,0l-10.06-4.92v-15.89h5.66c3.53-.23,7.18,1.82,9,3.11,2.85,1.9,5.32,1.25,7.18.84,1.06-.27,1.75-.42,2.01-.15.42.34.19.99,0,1.48-.27.46-1.22,1.63-5.58,2.85q-.68.15-1.03.15h-.53c-1.41.11-2.47.87-2.62,2.09-.04.61.11,1.18.53,1.6.46.46,1.22.8,1.94.8h2.05c1.33,0,1.48,0,2.43-.53.11-.11.27-.15.42-.27l15.42-8.77c2.01-1.03,3.99-.49,4.9.61.84,1.03.68,2.47-.53,3.95Z"/>
      <path class="cls-1" d="M26.85,58.1c-5.13,1.59-8.66.8-10.79-.15-.46-.19-.99,0-1.22.49-.19.46,0,.99.49,1.22,1.37.61,3.38,1.22,5.96,1.22,1.75,0,3.8-.27,6.08-.95.49-.19.76-.65.61-1.18-.15-.53-.68-.8-1.14-.65Z"/>
      <path class="cls-1" d="M22.54,31.63h-.29c-1.29,0-2.32,1.1-2.32,2.43,0,.58.18,1.1.49,1.51-.31.41-.49.91-.49,1.45,0,1.37,1.1,2.43,2.43,2.43h1.56c.42,1.69,1.96,2.92,3.79,2.92h2.13c1.84,0,3.37-1.23,3.84-2.92h1.59c1.33,0,2.35-1.06,2.43-2.43,0-.57-.2-1.09-.53-1.5.29-.4.46-.91.46-1.46,0-1.33-1.03-2.43-2.32-2.43h-.29c.14-4.99,1.39-6.67,2.57-8.28,1.06-1.37,2.16-2.85,2.16-6.27,0-6.08-4.9-10.98-10.98-10.98s-10.98,4.9-10.98,10.98c0,3.38,1.1,4.86,2.16,6.27,1.18,1.61,2.43,3.29,2.57,8.28ZM29.89,40.56h-2.09c-.82,0-1.5-.46-1.85-1.1h5.75c-.35.66-1.04,1.1-1.81,1.1ZM35.28,37.67h-1.94c-.13-.07-.28-.11-.45-.11s-.31.04-.45.11h-7.23c-.13-.07-.28-.11-.45-.11-.15,0-.3.04-.43.11h-1.96c-.34,0-.61-.23-.61-.61,0-.3.34-.57.61-.57h12.91c.3,0,.57.3.57.57,0,.38-.3.61-.57.61ZM35.32,33.42c.27,0,.49.34.49.61,0,.34-.27.57-.49.57,0,0,0,0-.01,0,0,0-.02,0-.02,0h-12.91s-.05,0-.07,0c-.01,0-.03,0-.04,0-.23,0-.49-.23-.49-.57s.23-.61.49-.61h.78c.13.07.28.11.44.11s.31-.04.45-.11h4.42c.13.07.28.11.45.11s.31-.04.45-.11h4.42c.13.07.28.11.45.11s.31-.04.45-.11h.77ZM28.79,7.9c5.01,0,9.11,4.06,9.11,9.15,0,2.85-.8,3.87-1.78,5.2-1.3,1.77-2.8,3.74-2.95,9.38h-3.43v-6.95l2.81-1.63c.42-.27.57-.84.3-1.25-.27-.46-.84-.61-1.25-.34l-2.86,1.66-2.76-1.59c-.42-.27-.99-.11-1.25.3-.27.42-.11.99.3,1.25l2.81,1.62v6.93h-3.43c-.15-5.64-1.65-7.62-2.95-9.38-.99-1.37-1.78-2.43-1.78-5.2,0-5.01,4.1-9.15,9.11-9.15Z"/>
      <path class="cls-1" d="M22.41,19.52c.46,0,.91-.42.91-.95,0-3.8,3.11-6.91,6.91-6.91.49,0,.91-.49.91-.95,0-.49-.42-.91-.91-.91-4.86,0-8.77,3.95-8.77,8.77,0,.53.42.95.95.95Z"/>
      <path class="cls-1" d="M28.79,4.6c.53,0,.95-.42.95-.91V.91c0-.49-.42-.91-.95-.91s-.95.38-.95.91v2.77c0,.49.42.91.95.91Z"/>
      <path class="cls-1" d="M36.42,6.65c.19.04.34.11.49.11.3,0,.65-.15.8-.49l1.37-2.43c.19-.46.04-.99-.38-1.25-.46-.23-.99-.04-1.25.38l-1.37,2.43c-.23.46-.08.99.34,1.25Z"/>
      <path class="cls-1" d="M42.76,12.72c.15,0,.3-.08.49-.15l2.39-1.44c.42-.27.61-.84.34-1.25-.27-.42-.87-.61-1.29-.34l-2.39,1.44c-.46.27-.61.84-.34,1.25.15.34.49.49.8.49Z"/>
      <path class="cls-1" d="M19.98,6.27c.15.34.49.49.8.49.15,0,.3,0,.46-.15.46-.27.61-.87.34-1.29l-1.44-2.43c-.27-.42-.84-.57-1.25-.3-.42.27-.57.84-.3,1.25l1.41,2.43Z"/>
      <path class="cls-1" d="M11.92,11.17l2.43,1.44c.15.04.3.11.46.11.3,0,.65-.15.8-.42.27-.46.11-1.03-.3-1.29l-2.43-1.41c-.42-.27-1.03-.11-1.29.3-.27.42-.08.99.34,1.25Z"/>
    </g>
  </g>
</svg>